<svg id="f6ab8ba1-7e68-4bec-bb42-3789208a6270" xmlns="http://www.w3.org/2000/svg" viewBox="0 0 300.28 441.56"><defs><style>.cls-1{fill:#ffb8b8;}.cls-2{fill:#6c63ff;}.cls-3{opacity:0.1;isolation:isolate;}.cls-4{fill:#2f2e41;}</style></defs><title>runing</title><path class="cls-1" d="M507.43,168.45s6.28-46.09,16.76-33.52,0,31.43,0,31.43l-8.38,10.47-8.38-6.28Z" transform="translate(-251.82 -35.1)"/><path class="cls-2" d="M482.29,183.12s20.95-23.05,25.14-18.86,16.76,6.29,14.67,14.67S476,214.55,476,214.55Z" transform="translate(-251.82 -35.1)"/><path class="cls-3" d="M482.29,183.12s20.95-23.05,25.14-18.86,16.76,6.29,14.67,14.67S476,214.55,476,214.55Z" transform="translate(-251.82 -35.1)"/><path class="cls-1" d="M362.86,181v16.77s-2.09,37.71,10.48,35.61,6.28-33.52,6.28-33.52L377.53,181Z" transform="translate(-251.82 -35.1)"/><path class="cls-1" d="M369.15,302.54S350.29,331.88,344,334s-39.81,20.95-44,39.81l-29.33,37.71,14.66,18.86s67.05-71.24,85.9-77.52S409,315.11,409,315.11Z" transform="translate(-251.82 -35.1)"/><path class="cls-1" d="M517.91,254.36s39.8,6.28,33.52,31.42-67,77.52-67,77.52l-2.09,12.57-23.05,4.19-10.48-10.47,2.1-6.29s25.14-23,27.24-31.42,25.14-41.91,35.61-44l-14.66-8.38Z" transform="translate(-251.82 -35.1)"/><path class="cls-4" d="M277,411.49s8.38-12.57-4.19-10.47-20.95,4.19-20.95,12.57,10.48,67,23.05,62.85,2.09-23,2.09-23,6.29-16.77,10.48-18.86,4.19-12.57,0-12.57S274.87,415.68,277,411.49Z" transform="translate(-251.82 -35.1)"/><path class="cls-4" d="M455.05,365.4s0-10.48-8.38,0-12.57,18.86-4.19,25.14,37.71,20.95,37.71,20.95,31.43,6.29,27.24-8.38c0,0-20.95-10.47-20.95-18.85s0-23.05-6.29-18.86S455.05,371.68,455.05,365.4Z" transform="translate(-251.82 -35.1)"/><path class="cls-4" d="M415.24,208.26s-29.33,4.19-27.23,46.1c0,0-37.72,37.71-27.24,50.28s33.52,35.62,41.9,29.33,33.52-54.47,33.52-54.47,58.67,20.95,69.14,10.47,21-35.61,21-35.61l-52.38-27.24Z" transform="translate(-251.82 -35.1)"/><circle class="cls-1" cx="245.13" cy="28.6" r="25.14"/><path class="cls-1" d="M478.1,65.79s-14.67,23-18.86,25.14,29.33,23,29.33,23,0-27.24,10.48-33.52Z" transform="translate(-251.82 -35.1)"/><path class="cls-2" d="M476,88.84s-33.52-10.48-39.81,6.28-20.95,48.19-18.85,69.14,6.28,16.76,0,23.05-10.48,2.1-8.38,10.48,4.19,8.38,2.09,12.57,25.14,18.85,48.19,20.95l23.05,2.09s0-37.71,4.19-46.09,12.57-25.14,12.57-31.43V139.25a63.66,63.66,0,0,0-8.38-31.56h0S478.1,88.84,476,88.84Z" transform="translate(-251.82 -35.1)"/><path class="cls-2" d="M450.86,97.22s-77.52,6.28-85.9,27.24-12.57,62.85-4.19,62.85,18.85,4.19,21,0,10.48-46.09,12.57-46.09,64.95-6.29,64.95-6.29S486.48,101.41,450.86,97.22Z" transform="translate(-251.82 -35.1)"/><path class="cls-4" d="M498,57.46s6.68-11.59,15-1.52,21.9-8.44,19.82-12.39-9.44.18-22-3.94S473.87,27.1,469.81,54.48,475.42,79,475.42,79s4.44-24.26,8.46-17.29l4,7,3.48.85Z" transform="translate(-251.82 -35.1)"/></svg>