<svg xmlns="http://www.w3.org/2000/svg" viewBox="0 0 722.99 599.5"><defs><style>.cls-1,.cls-2,.cls-4,.cls-6,.cls-8{fill:#fbb03b;}.cls-2,.cls-3,.cls-8{stroke:#fbb03b;stroke-miterlimit:10;}.cls-2,.cls-8{stroke-width:5px;}.cls-3{fill:none;stroke-width:2px;}.cls-4,.cls-6{font-size:105px;font-family:ComicSansMS-Bold, Comic Sans MS;font-weight:700;}.cls-5{font-size:140px;}.cls-6,.cls-7,.cls-8{opacity:0.38;}</style></defs><title>incessant v1</title><g id="Layer_1" data-name="Layer 1"><path class="cls-1" d="M393.56,653.49c-3.31-27.7,1.2-56,10.73-82.24s24-50.45,40.55-72.88c17.1-23.12,37.05-44.87,62.2-58.8s56.25-19.18,83.05-8.75c5.43,2.11,11,5.17,13.52,10.41,3.09,6.33,1,13.88-1.6,20.44A178,178,0,0,1,540.55,541c-6.25,4.5-12.87,8.62-20.1,11.28-7.51,2.75-15.5,3.86-23.25,5.82-39.69,10-71,42.46-88.07,79.67-3.46,7.55-6.7,15.69-13.28,20.77" transform="translate(-357.51 -392.5)"/><path class="cls-1" d="M396.56,653.49c-5.45-48.1,11.83-94.71,37.66-134.58,23.17-35.75,53.6-72.88,95.83-85.91,19.88-6.15,45.08-7.72,63.88,2.88,12.41,7,7.6,19.71,3,30.25a176,176,0,0,1-14.59,26.93,173.16,173.16,0,0,1-44.06,45.81,84.15,84.15,0,0,1-32,14.07c-9.95,2.15-19.54,4.7-28.84,8.91-19.05,8.62-35.59,22.42-48.7,38.59a167.69,167.69,0,0,0-17.55,26.35c-5.32,9.92-8.55,22.2-17.49,29.58-3,2.46,1.28,6.68,4.24,4.24,8.36-6.9,11.64-17.41,16.35-26.79a164.22,164.22,0,0,1,16.59-26.48c12.83-16.61,29.15-30.77,48.24-39.69,10.11-4.73,20.64-7,31.46-9.52,12.22-2.8,22.69-8.15,32.76-15.54a181.77,181.77,0,0,0,44.18-46.5A178.85,178.85,0,0,0,603.08,467c3.78-9,8.07-20.08,2-29.1-5.36-8-16.37-11.28-25.24-13.31a94.2,94.2,0,0,0-33.56-1.27c-45.34,6.11-79.23,39.71-105.1,75-32.74,44.65-57.05,98.66-50.64,155.2.43,3.8,6.44,3.84,6,0Z" transform="translate(-357.51 -392.5)"/><path class="cls-1" d="M551.35,666.11c-2,9.64-6.89,19-14.9,24.71-9.9,7.08-23.27,7.68-35.07,4.69s-22.52-9.13-33.31-14.78a445.53,445.53,0,0,0-42.23-19.35,56.52,56.52,0,0,0-27-3.87c-11,1.18-13.25.8-13.72.59,23-14,49.67-21.17,75.79-28.16,14-3.75,28.17-7.51,42.65-7.5s29.53,4.25,39.74,14.51a30.58,30.58,0,0,1,7.89,12.64C552.79,654.92,552.49,660.66,551.35,666.11Z" transform="translate(-357.51 -392.5)"/><path class="cls-1" d="M548.46,665.31c-3.74,16.57-15.22,28.5-32.81,28.89s-33.34-9.51-48.54-17.34c-14.76-7.61-30.54-16-46.59-20.43-8.09-2.26-16-2.45-24.35-1.65-2.79.27-8.09,1.23-10.24.43l.71,5.48c27.14-16.21,59.18-24.51,89.75-31.61,15.21-3.54,31.19-5.55,46.37-.82a44.49,44.49,0,0,1,18.43,10.81c7.3,7.36,9.17,16.22,7.27,26.24-.72,3.78,5.06,5.39,5.78,1.6,1.64-8.61,1.44-17.21-3.16-24.92A42.94,42.94,0,0,0,535,627c-14.39-8-31.3-8.66-47.24-6.25-18.53,2.79-37,8.48-54.92,14-17.08,5.22-33.86,11.62-49.23,20.81a3,3,0,0,0,.71,5.48c3.17,1.18,7.81.17,11-.13,9.71-.89,18.7-.58,28,2.76,18.67,6.7,36.19,16.21,53.78,25.24,14.77,7.58,31.19,14,48,10.19,15.87-3.63,25.69-16.83,29.14-32.14C555.09,663.15,549.31,661.54,548.46,665.31Z" transform="translate(-357.51 -392.5)"/><path class="cls-1" d="M383.49,660.59l.13.1v-5.18C373,662,361.41,670,358.24,682.78c-3,12.15,3.77,22.28,14.23,28,9.88,5.4,23.24,6.9,32.36-.85,7.46-6.33,10.48-17.25,5.51-26-1.91-3.36-7.1-.34-5.18,3,3.92,6.88.41,15.67-6,19.71-8.12,5.11-19,2.24-26.4-2.77-8.6-5.82-11.77-15-6.86-24.57,4.34-8.41,12.92-13.89,20.75-18.67,2.1-1.28,1.75-3.84,0-5.18l-.13-.1c-3.05-2.35-6.05,2.86-3,5.18Z" transform="translate(-357.51 -392.5)"/><circle class="cls-2" cx="290.99" cy="33" r="30.5"/><path class="cls-3" d="M399,658" transform="translate(-357.51 -392.5)"/><path class="cls-3" d="M621.5,211.5" transform="translate(-357.51 -392.5)"/></g><g id="Layer_4" data-name="Layer 4"><text class="cls-4" transform="translate(194.81 297.42)">ncessan<tspan class="cls-5" x="383.14" y="0">t</tspan></text></g><g id="Layer_5" data-name="Layer 5"><text class="cls-6" transform="matrix(1, 0, 0, -1, 197.31, 303.08)">ncessan<tspan class="cls-5" x="383.14" y="0">t</tspan></text><g class="cls-7"><path class="cls-1" d="M396.06,732c-3.31,27.7,1.2,56,10.73,82.24s24,50.45,40.55,72.88c17.1,23.12,37.05,44.87,62.2,58.8s56.25,19.18,83.05,8.75c5.43-2.11,11-5.17,13.52-10.41,3.09-6.33,1-13.88-1.6-20.44a178,178,0,0,0-61.46-79.28c-6.25-4.5-12.87-8.62-20.1-11.28-7.51-2.75-15.5-3.86-23.25-5.82-39.69-10-71-42.46-88.07-79.67-3.46-7.55-6.7-15.69-13.28-20.77" transform="translate(-357.51 -392.5)"/><path class="cls-1" d="M393.06,732c-5.7,50.28,13,99.25,40.44,140.59,24.31,36.68,55.93,73.9,99.85,86.41,20.64,5.87,44.45,6.29,64.13-3.2,9.14-4.41,14.29-12.18,12.83-22.48s-7.08-20.9-12-30.06a181.3,181.3,0,0,0-40.5-50.82c-8.43-7.32-17.57-14.43-27.65-19.32-10.78-5.24-22.62-6.38-34-9.76-22.48-6.69-42-20.94-57.28-38.51A160,160,0,0,1,418.55,755c-5.45-10.26-8.83-22.49-18.08-30.13-3-2.44-7.22,1.78-4.24,4.24,8.08,6.68,11.15,17.19,15.75,26.25a165.46,165.46,0,0,0,15.11,24.31c11.22,15,25,28.16,41.07,37.78a117.65,117.65,0,0,0,25,11.25c11,3.43,22.72,4.3,33.2,9.2,19.14,9,35.89,25.14,49,41.44a174.77,174.77,0,0,1,17.78,26.94c4.74,8.84,11.3,20,11.5,30.25.23,12.38-14.09,16.38-23.88,18.62a88.05,88.05,0,0,1-32.8.92c-44.52-6.87-77.26-41.21-102.21-76.24C415.15,836.91,393,785.75,399.06,732c.44-3.83-5.57-3.8-6,0Z" transform="translate(-357.51 -392.5)"/></g><g class="cls-7"><path class="cls-1" d="M553.85,719.39c-2-9.64-6.89-19-14.9-24.71-9.9-7.08-23.27-7.68-35.07-4.69s-22.52,9.13-33.31,14.78a445.53,445.53,0,0,1-42.23,19.35,56.52,56.52,0,0,1-27,3.87c-11-1.18-13.25-.8-13.72-.59,23,14,49.67,21.17,75.79,28.16,14,3.75,28.17,7.51,42.65,7.5s29.53-4.25,39.74-14.51a30.58,30.58,0,0,0,7.89-12.64C555.29,730.58,555,724.84,553.85,719.39Z" transform="translate(-357.51 -392.5)"/><path class="cls-1" d="M556.74,718.59c-3.39-15-12.89-28.08-28.37-32-17-4.26-33.83,2.33-48.78,10-17.35,8.91-34.6,18.05-52.91,24.92-9.56,3.58-18.8,4-28.85,3.08-3.19-.3-7.83-1.31-11-.13a3,3,0,0,0-.71,5.48c15.37,9.19,32.15,15.59,49.23,20.81,17.89,5.47,36.39,11.16,54.92,14,15.94,2.41,32.85,1.76,47.24-6.25a42.94,42.94,0,0,0,16.07-15c4.6-7.71,4.8-16.31,3.16-24.92-.72-3.79-6.5-2.18-5.78,1.6,1.84,9.66.23,18.36-6.69,25.63a44.35,44.35,0,0,1-19,11.42c-15.16,4.74-31.18,2.73-46.37-.82-30.57-7.13-62.6-15.39-89.75-31.61l-.71,5.48c2-.73,6.77.1,9.4.35,8.31.76,16.17.81,24.31-1.32,7.95-2.09,15.64-5.76,23.15-9.07q12.33-5.43,24.32-11.61c15-7.71,30.3-17.43,47.74-17.34,17.93.09,29.79,12,33.61,28.89C551.81,724,557.59,722.36,556.74,718.59Z" transform="translate(-357.51 -392.5)"/></g><g class="cls-7"><path class="cls-1" d="M412.84,701.53c5-8.71,2-19.63-5.51-26-9.09-7.73-22.51-6.29-32.36-.85-10.48,5.79-17.23,15.79-14.23,28,3.12,12.74,14.83,20.84,25.38,27.27v-5.18l-.13.1c-3,2.32,0,7.54,3,5.18l.13-.1c1.75-1.34,2.1-3.9,0-5.18-7.83-4.78-16.41-10.26-20.75-18.67-4.91-9.52-1.74-18.75,6.86-24.57,7.4-5,18.28-7.88,26.4-2.77,6.42,4,9.93,12.83,6,19.71-1.92,3.36,3.27,6.38,5.18,3Z" transform="translate(-357.51 -392.5)"/></g><circle class="cls-8" cx="294.49" cy="566.5" r="30.5"/></g></svg>