<svg xmlns="http://www.w3.org/2000/svg" viewBox="0 0 396.59 488.77"><defs><style>.cls-1{fill:none;stroke-linecap:round;stroke-width:14px;}.cls-1,.cls-2{stroke:#bdccd4;stroke-miterlimit:10;}.cls-2,.cls-3{fill:#bdccd4;}.cls-2{stroke-width:6.77px;}</style></defs><title>zazen</title><g id="Layer_2" data-name="Layer 2"><path class="cls-1" d="M371.27,554.09a12.22,12.22,0,0,0,.23,2.41c1.59,8.39,11,13.46,18,15,4.06.9,15.06,2.31,34-12,24.78-18.72,35.72-43.63,38-49,27.46-64.57,9.86-126.38,34-139a30.84,30.84,0,0,1,10-3c16.18-1.58,29.1,12.89,35,18,39.81,34.48,39.24,103.48,17,149-4.51,9.23-8.7,15-16,25-3.49,4.77-9.92,13.3-18.7,23.54C493.21,618.56,437,672.53,377.5,667.5c-6.94-.59-36.15-3-43-20-3-7.49-1-16,0-20,3.23-13.36,12-21.5,17-26a70.85,70.85,0,0,1,21-13c71.51-29.2,136-10,136-10,4.66,1.57,9.41,3.43,14.3,5.54q3.57,1.55,7.24,3.27c13.37-10.33,27.1-20.67,47.46-28.81,45.43-18.16,88.08-11,109-2,13.93,6,19.69,13.52,22,17a42.83,42.83,0,0,1,7,22c.5,27.5-31.87,59.76-62,53-24.5-5.5-29.65-10.93-81-39-15.43-8.44-29.43-16.09-42.46-22.19l-1.54,1.19C513.41,600.17,504.83,607,499,619c-10,20.58-4.82,41.9-2,51" transform="translate(-325.91 -253.28)"/><path class="cls-1" d="M564.5,369.5c14-9,23,25.37,24.3,40.05,6.7,73.95,41.7,130,81.89,133.39,6.09.53,18.85-3.78,27.29-13.87a36.88,36.88,0,0,0,3.22-4.33" transform="translate(-325.91 -253.28)"/><circle class="cls-2" cx="214.01" cy="86.14" r="22.58"/></g><g id="Layer_3" data-name="Layer 3"><rect class="cls-3" x="141.86" y="416.72" width="64.17" height="18.65" rx="9.32"/><rect class="cls-3" x="130.84" y="442.15" width="86.2" height="18.65" rx="9.32"/><rect class="cls-3" x="462.52" y="717.85" width="37.5" height="10.9" rx="5.45" transform="translate(878.66 -11.25) rotate(90)"/><rect class="cls-3" x="502.71" y="717.85" width="37.5" height="10.9" rx="5.45" transform="translate(918.85 -51.44) rotate(90)"/></g><g id="Layer_5" data-name="Layer 5"><path class="cls-3" d="M537.72,266.05a45.63,45.63,0,0,1,33.53,11.51,3.57,3.57,0,0,0,4.88-.09l4-3.84a3.59,3.59,0,0,0,.08-5.07l-.17-.17a58.42,58.42,0,0,0-80.58,2.07,3.6,3.6,0,0,0,0,5.09l.16.15,4.15,3.63a3.58,3.58,0,0,0,4.87-.14A45.54,45.54,0,0,1,537.72,266.05Z" transform="translate(-325.91 -253.28)"/><path class="cls-3" d="M538.19,273.08a45.55,45.55,0,0,0-28.71,12.73,3.59,3.59,0,0,0-.07,5.07l.21.2,3.09,2.71a3.59,3.59,0,0,0,4.83-.1,34.49,34.49,0,0,1,46.1-1.2,3.59,3.59,0,0,0,4.84-.13l2.95-2.86a3.57,3.57,0,0,0,.09-5.06,1.34,1.34,0,0,0-.21-.2A45.58,45.58,0,0,0,538.19,273.08Z" transform="translate(-325.91 -253.28)"/><path class="cls-3" d="M540,300.47A25.25,25.25,0,0,1,557.55,306a3.62,3.62,0,0,0,4.8-.18l1.42-1.38a3.59,3.59,0,0,0,.07-5.09,3,3,0,0,0-.32-.29,34.49,34.49,0,0,0-45,1.23,3.56,3.56,0,0,0-.17,5l.28.27,1.49,1.31a3.63,3.63,0,0,0,4.8-.07A25.29,25.29,0,0,1,540,300.47Z" transform="translate(-325.91 -253.28)"/></g></svg>